<svg width="4096" height="549" viewBox="0 0 4096 549" fill="none" xmlns="http://www.w3.org/2000/svg">
<path d="M4096 519V548.5H0V420H19V443H32.5V497.5H62V452.5H87V299H142V274H192V286.5H202V437.5H248V306H278.5V327H313.5V367H336V312.5H382.5V297H432V444.5H449V326H480V170H536V323.5H564L572.5 335.5H588L587.5 364.5H601V438H614.5V484.5H632V434.5H654.5V412.5H677V430H761.5V447.5H787V476.5H801V422.5H825V364.5H832.5V278.5L886 277.5V420.5H893V457H902V472.5H921.5V367.5H925.5V329.5H935V294L1005 293V422.5H1018.5L1017 335H1024V321H1051.5V337H1059.5V433H1070.5C1070.67 442.5 1070.9 462 1070.5 464C1070.1 466 1074 464.833 1076 464V351.5H1091V329.5H1120V311.5H1144V293H1178.5V301.5H1195V317.5H1228.5V343.5H1247.5V305H1259.5V293H1283V274H1318V293H1333.5V310H1349.5V274H1395.5V258.5H1429V281H1461V183H1490.5V167H1552V200.5H1567V368.5H1582.5V320.5H1605.5V296H1655.5V318.5H1679V250H1697V221.5H1776.5V308H1830.5V416H1900V10.5H1928V0H1975V22.5H1983.5V406H2037.5V299H2058V274.5H2137.5V331.5H2150V494.5H2185.5L2184.5 429H2209.5V410H2234V428H2250.5L2251.5 497.5H2273L2272 280.5H2289.5V261H2348V274.5H2357V253L2396 252.5V498.5H2472.5V331H2487V314.5H2520L2529 328H2539.5V476H2561V506.5H2575.5V364H2595.5V349H2618.5V331H2638V369.5H2650.5V505.5H2677.5L2676.5 211H2703V177H2791V211H2806V267H2815V490H2893V430.5H2915V411.5H2949.5V430.5H2962V506H2982V402H3010.5V382L3045.5 381V363H3078.5V382H3094.5V501H3138V435.5H3224.5V506.5H3252V401H3341V434.5H3356.5V413.5H3375V434.5H3391V329H3406.5V313.5H3445.5V333.5H3459V510.5H3477.5V312.5H3498V297H3530V316H3543.5V515H3654.5V375H3682V358.5H3738V375H3762.5V517.5H3782.5V498.5H3798.5V402.5H3814.5V384.5H3844V416.5H3853V401H3876V414.5H3899V493.5H3930V529H3955V497.5H3976V484H4014V465H4036V484H4058.5V519H4096Z" fill="#E8EDF0"/>
</svg>
